<?xml version="1.0" encoding="utf-8"?>
<!-- Generator: Adobe Illustrator 21.1.0, SVG Export Plug-In . SVG Version: 6.00 Build 0)  -->
<svg version="1.1" xmlns="http://www.w3.org/2000/svg" xmlns:xlink="http://www.w3.org/1999/xlink" x="0px" y="0px"
	 viewBox="0 0 190.5 158.5" style="enable-background:new 0 0 190.5 158.5;" xml:space="preserve">
<style type="text/css">
	.st0{display:none;}
	.st1{display:none;fill-rule:evenodd;clip-rule:evenodd;}
	.st2{fill-rule:evenodd;clip-rule:evenodd;fill:#FFFFFF;}
	.st3{fill-rule:evenodd;clip-rule:evenodd;fill:#ED1C24;}
	.st4{display:inline;fill-rule:evenodd;clip-rule:evenodd;fill:#ED1C24;}
	.st5{display:inline;fill-rule:evenodd;clip-rule:evenodd;fill:#FFFFFF;}
</style>
<g id="cdr_x5F_layer1" class="st0">
</g>
<g id="cdr_x5F_layer2">
	<rect x="749.9" y="-794.2" class="st1" width="420.4" height="508.4"/>
	<g>
		<path class="st2" d="M166.4,121.3c0.1,9.4-15.1,12.9-22,14.4c-6.7,1.4-13.6,2.2-20.5,2.8c-7.9,0.6-15.9,0.9-23.8,0.9
			s-15.9-0.3-23.8-0.9c-6.8-0.6-13.8-1.4-20.5-2.8c-7-1.4-22.1-5-22-14.4c-0.6-16.6,4.5-34.2,11.5-49.1c6-12.9,14.3-25.8,24.3-36
			c7.8-8.1,18.6-16.4,30.1-17.7l0.5-0.1l0.5,0.1c10.9,1.7,21.4,10.1,28.8,17.8c9.9,10.1,18.2,22.7,24.5,35.3
			C161.4,86.6,167.1,104.5,166.4,121.3z"/>
		<path class="st3" d="M100.1,22.3c26.8,4.1,64.1,58.7,62.5,99c0.3,9.4-30,14.3-62.5,14.3c-32.4,0-62.7-4.9-62.5-14.3
			C36.1,81,71.4,25.7,100.1,22.3z"/>
		<path class="st2" d="M112,112.2c0-0.8,0-1.7-1-1.8h-6.9c-0.3,0.1-1,1.3-1.1,1.5c-0.4,0.6-1,1.4-1.8,1.6c0,0.1-0.1,0.2-0.1,0.3
			c0.1,0.3,0.8,0.4,1.1,0.4h6.9l0,0c0.4,0.1,1.2-0.5,1.5-0.7C111,113.3,111.8,112.6,112,112.2z M68.7,68.7c0-0.5,1.1,0.1,2.2-0.9
			c0.4,0.8-0.3,2.1-0.9,2.3C68.8,70.4,68.6,69.6,68.7,68.7z M65.1,81.5c-0.1,0.4-0.1,1.4,0.2,1.7l3.6,2.9c1.4,0.1,2.7-0.1,3.8-1
			c2.6-3.7,4.7-7.6,7-11.4l0.1-0.2l0.2,0c1-0.1,2.3-1.5,3-2.3c0.7-1.6,0.7-3.4,0.1-5c-0.4-1.1-1.3-2.5-2.6-2.7c-0.5-0.1-1,0-1.4,0.3
			c-0.3,0.3-0.8,0.6-1.3,0.3c-0.5-0.3-0.2-1.1-0.4-1.5c-0.4-0.3-1-0.8-0.8-1.3c0.2-0.4,0.7-0.4,1.1-0.4c0.6,0.1,1.2,0.2,1.8,0.3
			c1.5,0.3,3,0.8,4.1,1.9c2,2,1.6,5.2,0.9,7.7l0,0c-2.3,7.4-6.7,12.3-12.6,17c0,2.1,0.1,4.2,0.2,6.4c0.1,1.7,0.3,3.5,0.6,5.2
			c0.3,1.9,1,4.7,2.5,6.1c6.7,5.3,14.4,9.4,23.2,8.2c1.5-0.7,4.3-2.4,3.8-4.5c-0.2-1-1.2-1.7-2.1-2c-2.2-0.2-6.3-0.6-7.9-2.1
			c-5.8-4.3-4.8-10.5-2.1-16.3l0,0l0,0c1.4-2.3,2.6-4.6,3.2-7.3c0.6-2.8,0.6-6,0.4-8.9l0-0.7l0.7,0.2c1.3,0.4,1.5,2.2,1.7,3.3
			c0.1,1.2,0.2,2.5,0.2,3.7c0,1.9,0,3.7-0.1,5.6c0.1,0.3,0.2,0.8,0.4,1.1c0.1,0.1,0.2,0.1,0.3,0.2l5,0c0.5-0.2,0.9-0.4,1-1
			c-0.4-5.4-0.9-10.8-2.7-16c-1.4-4-3.7-7.6-7.5-9.8c-5.5-3.1-12.9-2.4-18.8-1.6l0,0c-0.9,0.1-2.9-0.9-3.8-1.3
			c-0.5-0.2-1.1-0.5-1.6-0.7c-1.2-0.2-2.8-0.3-4-0.2c-0.6,0.1-0.9,0.5-1.1,1l4.1,3.5c1.1,0.9,1.3,1.3,0.6,2.7l-1.2,4
			c-0.1,0.3-0.1,0.7-0.2,0.9c-0.1,0.6-0.1,1.1-0.1,1.7c-0.1,1.5-0.2,3.1-0.3,4.6C66,75.4,65.8,80.3,65.1,81.5z M63.5,60.2
			c-0.9,2.2-1.7,4.5-2.4,6.8l0.8,1.1c1,0.1,2.2,0.1,3.1-0.3l0.4-1.8c-0.1-1.4,0.2-2.7,1.1-3.9C65.9,60.5,65.2,59.4,63.5,60.2z
			 M72.2,52.7l-2.2,1.5c-0.2,1.2,1.6,1.5,2.5,1.6l2.1,0l0.1-0.9c-0.2-0.3-0.3-0.7-0.4-1c-0.1-0.2-0.3-0.9-0.4-1.2L72.2,52.7z
			 M79.7,50.6C79.7,50.6,79.7,50.6,79.7,50.6c-0.1-0.2-0.6-0.3-0.8-0.3c-0.5,0-1.2,0-1.7,0.2c-0.5,0.1-1.1,0.3-1.6,0.6
			c-0.2,0.1-0.6,0.4-0.6,0.6c0,0,0,0.1,0,0.1c0.6,1.2,1.4,2,1.8,3.3h3.3C80.4,53.7,79.8,52.1,79.7,50.6z M82.1,53.8
			c0,0.5,0,1.1,0.6,1.1h2.5l0,0c0.2,0,0.3,0,0.4-0.2v-3.3l0.1-0.1c0.4-0.5,0.7-1.2,0.2-1.7l-3.6,0c-0.7,0-0.9,0.2-0.8,0.8
			C82.1,51.5,82.3,52.6,82.1,53.8z M89,50.2c-0.9-0.1-1.3,0.2-1.4,1.1l0,0l-0.4,2.3l0,0c0,0.2-0.3,1.1-0.2,1.3c0,0,0.1,0.1,0.2,0.1
			l2.2,0.9l0,0c0.5,0.3,0.7,0.2,0.9-0.3c0.4-1.1,0.9-2.2,1.4-3.2l0,0l0,0c0.3-0.4,0.5-0.8,0-1.2L89,50.2z M95.2,57.9l2.2-2.2l0,0
			c0.5-0.4,0.6-0.8,0.1-1.3l-2-1.6c-0.5-0.3-1-0.4-1.5,0l-1.8,3.3c-0.4,1,0.6,1.5,1.4,1.8l0,0l0,0C94.2,58.2,94.7,58.4,95.2,57.9z
			 M98.8,56.6l-2.3,2.2l0,0C96,59.2,96,59.6,96.4,60l1.7,1.7l0,0c0.3,0.4,0.7,0.3,1.1,0l2.6-1.6c0.4-0.2,0.6-0.5,0.4-0.9l-2-2.5
			C99.7,56.4,99.3,56.3,98.8,56.6z M101,66.4c0.2,0.3,0.4,0.3,0.7,0.2l0,0l2.6-0.7c0.5-0.1,0.8-0.3,0.6-0.8l-1.3-2.9
			c-0.3-0.5-0.8-0.4-1.2-0.2l-2.4,1.3l0,0c-0.1,0-0.4,0.2-0.5,0.3c0,0.1,0.1,0.3,0.2,0.3l0,0L101,66.4z M106.1,70.9
			c-0.4-0.7-0.3-2.1-0.3-2.8c-0.1-0.4-0.5-0.5-0.9-0.5l-2.6,0.9l-0.1,0c-0.4,0-0.4,0.2-0.3,0.5l0,0c0.1,0.4,0.5,2,0.8,2.5
			c0.7,0,1.1,0.2,1.7,0.5c0.4,0.2,0.7,0.3,1.1,0.2C106,72.1,106.1,71.3,106.1,70.9z M103.5,73.8c-0.3,0.1-0.4,0.2-0.4,0.5
			c0.1,0.7,0.3,1.3,0.4,2c0.2,1.1,0.3,2,0.3,3.1c0.1,0.4,0.6,0.5,0.6,0.1l0-0.1l0-0.1c0.2-0.8,0.6-1.4,1-2.1
			c0.2-0.3,0.6-0.8,0.6-1.2l-0.3-1.8l0,0c0-0.5,0-0.5-0.5-0.5H103.5z M109.4,61c-0.5,0.4-1,0.9-1.3,1.3c-0.3,0.4-1.1,1.4-0.9,1.9
			c0.1,0.1,0.2,0.2,0.3,0.3L121,64l0,0c0.4,0,0.9,0.1,1,0.6c0.1,0.6-0.8,1-1.2,1.3c-0.2,0.1-0.6,0.4-0.7,0.5l0,0.1l-0.1,0.1
			c-0.2,0.2-0.3,0.4-0.3,0.6h15.2c0.9-2,3.2-3.2,4.2-5.1c0.2-0.5,0.2-1-0.4-1.2H109.4z M98,87.8c4.7,0,8.5,3.8,8.5,8.5
			s-3.8,8.5-8.5,8.5s-8.5-3.8-8.5-8.5S93.3,87.8,98,87.8z M118.3,69.3c-0.5,0.4-1.1,2.2-1.4,2.8c-0.1,0.6,0,1.5,0.6,1.7l14.2,0
			c0.9-0.2,2.4-1.9,2.6-2.7l0-0.1l0,0c0.5-1,0.5-1.7-0.8-1.7h0H118.3z M116.4,79.6h13.1c0.4,0,1.2-0.8,1.5-1.1
			c0.4-0.4,0.9-1,1.1-1.5c0.1-0.3,0.4-1.1,0.1-1.4c-0.1-0.1-0.4-0.2-0.5-0.2h-14.5l0,0c-1.2-0.1-1.6,0.3-1.5,1.5l0,0.1l0,0.1
			c-0.2,0.5-0.5,1.6-0.1,2.1C115.7,79.5,116.1,79.6,116.4,79.6z M114.5,83.2c-0.1,0.2-0.2,0.9-0.2,1.1c0,0.2,0,0.9,0.2,1h13.6
			c0.3-0.3,0.5-0.6,0.8-0.9c0.4-0.4,2.3-2.1,2.2-2.7c0-0.3-0.5-0.5-0.8-0.6h-15.2c-0.1,0-0.3,0-0.3,0.1c-0.3,0.3-0.3,1.3-0.3,1.7
			l0,0.2L114.5,83.2z M114.3,86.9c-0.6,0.1-0.8,0.3-0.7,1l0,0.3l-0.2,0.2c-0.2,0.2-0.3,0.8-0.3,1.1c0,0.6-0.1,1.1-0.1,1.7l12.8,0
			c1-0.3,1.8-1.1,2.3-2c0.3-0.5,0.6-1.5,0.2-2c-0.1-0.2-0.3-0.2-0.5-0.3L114.3,86.9z M112.7,93c-0.1,0.3-0.3,0.5-0.5,0.7
			c-0.2,0.4-0.5,0.9-0.7,1.3c-0.1,0.4-0.2,0.8-0.2,1.2c0,0.3,0.1,0.8,0.4,1h11.1l2-2.2c0.3-0.4,0.5-0.9,0.6-1.4c0-0.1,0-0.5-0.1-0.6
			c0,0-0.1,0-0.2,0H112.7z M111.2,98.8c-0.4,0.1-1,1.2-1.2,1.5c-0.3,0.5-0.7,1.3-1.1,1.8c0,0.5,0.1,0.9,0.7,0.9h8.8
			c1.5-0.3,2.6-1.6,3.3-2.9c0.1-0.2,0.2-0.6,0.1-0.8c-0.3-0.5-1.5-0.5-2-0.5H111.2z M106.1,108.9h8.2c1.3-0.6,2.2-2,2.9-3.2
			c0.1-0.3,0.1-0.8-0.1-1c-0.1-0.1-0.2-0.1-0.3-0.1h-8.3l0,0c-0.1,0-0.1,0-0.2,0c-0.6,0.1-1.2,1.3-1.5,1.7c-0.3,0.5-0.6,1-1,1.5
			c-0.1,0.1-0.6,0.7-0.5,0.9C105.4,108.8,105.9,108.8,106.1,108.9z"/>
		<path class="st2" d="M73.8,128.6v-8h3.1c0-0.3,0-0.5,0-0.6c0-0.1,0-0.3,0-0.5c0-0.2,0-0.3-0.1-0.4c0-0.1-0.1-0.2-0.1-0.3
			c-0.1-0.1-0.1-0.2-0.2-0.2c-0.1,0-0.2,0-0.3,0h-7.6v2.1h3.1v8H73.8z M86.6,118.4h-2.5l-1.7,5c-0.9-1.6-1.7-3.3-2.3-5h-2.6v0.1
			c0.9,2.4,2.2,4.9,3.9,7.4c-0.2,0.6-0.7,0.9-1.5,0.9c-0.5,0-0.9-0.1-1.1-0.2v0.6c0,0.5,0.2,0.8,0.5,1c0.3,0.2,0.7,0.4,1.3,0.4
			c1.6,0,2.7-1.1,3.2-3.4L86.6,118.4z M95.5,127.4v-5.8c0-1.2-0.2-2-0.6-2.5s-1.2-0.7-2.3-0.7h-4.4c-0.3,0-0.5,0.1-0.6,0.4
			c-0.1,0.3-0.1,0.8-0.1,1.7h0.9l-0.6,4.7c-0.1,1-0.6,1.5-1.3,1.5c-0.3,0-0.5,0-0.7-0.1v1.1c0,0.4,0.2,0.6,0.5,0.8
			c0.3,0.2,0.7,0.3,1.1,0.3c0.7,0,1.2-0.2,1.7-0.7c0.5-0.4,0.7-1.1,0.8-2l0.6-5.6h1.2c0.5,0,0.9,0.1,1.1,0.3c0.2,0.2,0.3,0.6,0.3,1
			v6.8c1,0,1.7-0.1,1.9-0.2C95.4,128.3,95.5,128,95.5,127.4z M105.9,127.4v-6.2c0-1-0.2-1.8-0.6-2.2c-0.4-0.4-1.1-0.6-2.1-0.6h-3.6
			c-1,0-1.6,0.1-1.9,0.2c-0.2,0.1-0.4,0.5-0.4,1v8.9h2.2v-8h3.1c0.4,0,0.6,0.1,0.8,0.3s0.2,0.4,0.2,0.8v7c1,0,1.6-0.1,1.9-0.2
			C105.8,128.3,105.9,128,105.9,127.4z M116.9,128.6v-0.2l-3.8-10.1c-1,0-1.9,0.2-2.5,0.6c0.1,0.3,0,0.7-0.2,1.3
			c-1.2,2.4-2.3,5.2-3.2,8.4h2.5l0.5-1.8h3.8l0.6,1.8H116.9z M113.3,124.9h-2.6c0.4-1.3,0.9-2.5,1.4-3.7L113.3,124.9z M125.5,121.9
			c0-2.3-1.4-3.5-4.1-3.5h-1c-1,0-1.6,0.1-1.9,0.2c-0.2,0.1-0.4,0.5-0.4,1v8.9h2.2v-2.9h0.8c1.3,0,2.3-0.3,3.1-1
			C125.1,123.9,125.5,123,125.5,121.9z M123.2,121.9c0,0.6-0.2,1.1-0.6,1.4c-0.4,0.3-0.9,0.5-1.6,0.5h-0.6v-3.4h0.7
			C122.5,120.4,123.2,120.9,123.2,121.9z"/>
	</g>
	<g class="st0">
		<path class="st4" d="M960.1-530.8c26.8,4.1,64.1,58.7,62.5,99c0.3,9.4-30,14.3-62.5,14.3c-32.4,0-62.7-4.9-62.5-14.3
			C896.1-472.2,931.4-527.5,960.1-530.8z"/>
		<path class="st5" d="M972-440.9c0-0.8,0-1.7-1-1.8h-6.9c-0.3,0.1-1,1.3-1.1,1.5c-0.4,0.6-1,1.4-1.8,1.6c0,0.1-0.1,0.2-0.1,0.3
			c0.1,0.3,0.8,0.4,1.1,0.4h6.9l0,0c0.4,0.1,1.2-0.5,1.5-0.7C971-439.9,971.8-440.6,972-440.9z M928.7-484.4c0-0.5,1.1,0.1,2.2-0.9
			c0.4,0.8-0.3,2.1-0.9,2.3C928.8-482.7,928.6-483.6,928.7-484.4z M925.1-471.7c-0.1,0.4-0.1,1.4,0.2,1.7l3.6,2.9
			c1.4,0.1,2.7-0.1,3.8-1c2.6-3.7,4.7-7.6,7-11.4l0.1-0.2l0.2,0c1-0.1,2.3-1.5,3-2.3c0.7-1.6,0.7-3.4,0.1-5
			c-0.4-1.1-1.3-2.5-2.6-2.7c-0.5-0.1-1,0-1.4,0.3c-0.3,0.3-0.8,0.6-1.3,0.3c-0.5-0.3-0.2-1.1-0.4-1.5c-0.4-0.3-1-0.8-0.8-1.3
			c0.2-0.4,0.7-0.4,1.1-0.4c0.6,0.1,1.2,0.2,1.8,0.3c1.5,0.3,3,0.8,4.1,1.9c2,2,1.6,5.2,0.9,7.7l0,0c-2.3,7.4-6.7,12.3-12.6,17
			c0,2.1,0.1,4.2,0.2,6.4c0.1,1.7,0.3,3.5,0.6,5.2c0.3,1.9,1,4.7,2.5,6.1c6.7,5.3,14.4,9.4,23.2,8.2c1.5-0.7,4.3-2.4,3.8-4.5
			c-0.2-1-1.2-1.7-2.1-2c-2.2-0.2-6.3-0.6-7.9-2.1c-5.8-4.3-4.8-10.5-2.1-16.4l0,0l0,0c1.4-2.3,2.6-4.6,3.2-7.3
			c0.6-2.8,0.6-6,0.4-8.9l0-0.7l0.7,0.2c1.3,0.4,1.5,2.2,1.7,3.3c0.1,1.2,0.2,2.5,0.2,3.7c0,1.9,0,3.7-0.1,5.6
			c0.1,0.3,0.2,0.8,0.4,1.1c0.1,0.1,0.2,0.1,0.3,0.2l5,0c0.5-0.2,0.9-0.4,1-1c-0.4-5.4-0.9-10.8-2.7-16c-1.4-4-3.7-7.6-7.5-9.8
			c-5.5-3.1-12.9-2.4-18.8-1.6l0,0c-1,0.1-2.9-0.9-3.8-1.3c-0.5-0.2-1.1-0.5-1.6-0.7c-1.2-0.2-2.8-0.3-4-0.2c-0.6,0.1-0.9,0.5-1.1,1
			l4.1,3.5c1.1,0.9,1.3,1.3,0.6,2.7l-1.2,4c-0.1,0.3-0.1,0.7-0.2,0.9c-0.1,0.6-0.1,1.1-0.1,1.7c-0.1,1.5-0.2,3.1-0.3,4.6
			C926-477.8,925.8-472.9,925.1-471.7z M923.5-492.9c-0.9,2.2-1.7,4.5-2.4,6.8l0.8,1.1c1,0.1,2.2,0.1,3.1-0.3l0.4-1.8
			c-0.1-1.4,0.2-2.7,1.1-3.9C925.9-492.6,925.2-493.7,923.5-492.9z M932.2-500.5l-2.2,1.5c-0.2,1.2,1.6,1.5,2.5,1.6l2.1,0l0.1-0.9
			c-0.2-0.3-0.3-0.7-0.4-1c-0.1-0.2-0.3-0.9-0.4-1.2L932.2-500.5z M939.7-502.6C939.7-502.6,939.7-502.6,939.7-502.6
			c-0.1-0.2-0.6-0.3-0.8-0.3c-0.5,0-1.2,0-1.7,0.2c-0.5,0.1-1.1,0.3-1.6,0.6c-0.2,0.1-0.6,0.4-0.6,0.6c0,0,0,0.1,0,0.1
			c0.6,1.2,1.4,2,1.8,3.3h3.3C940.4-499.5,939.8-501.1,939.7-502.6z M942.1-499.3c0,0.5,0,1.1,0.6,1.1h2.5l0,0c0.2,0,0.3,0,0.4-0.2
			v-3.3l0.1-0.1c0.4-0.5,0.7-1.2,0.2-1.7l-3.6,0c-0.7,0-0.9,0.2-0.8,0.8C942.1-501.7,942.3-500.5,942.1-499.3z M949-503
			c-0.9-0.1-1.3,0.2-1.4,1.1l0,0l-0.4,2.3l0,0c0,0.2-0.3,1.1-0.2,1.3c0,0.1,0.1,0.1,0.2,0.1l2.2,0.9l0,0c0.5,0.3,0.7,0.2,0.9-0.3
			c0.4-1.1,0.9-2.2,1.4-3.2l0,0l0,0c0.3-0.4,0.5-0.8,0-1.2L949-503z M955.2-495.2l2.2-2.2l0,0c0.5-0.4,0.6-0.8,0.1-1.3l-2-1.6
			c-0.5-0.3-1-0.4-1.5,0l-1.8,3.3c-0.4,1,0.6,1.5,1.4,1.8l0,0l0,0C954.2-495,954.7-494.8,955.2-495.2z M958.9-496.6l-2.3,2.2l0,0
			c-0.5,0.4-0.5,0.7-0.1,1.2l1.7,1.7l0,0c0.3,0.4,0.7,0.3,1.1,0l2.6-1.6c0.4-0.2,0.6-0.5,0.4-0.9l-2-2.5
			C959.7-496.8,959.3-496.8,958.9-496.6z M961-486.8c0.2,0.3,0.4,0.3,0.7,0.2l0,0l2.6-0.7c0.5-0.1,0.8-0.3,0.6-0.8l-1.3-2.9
			c-0.3-0.5-0.8-0.4-1.2-0.2l-2.4,1.3l0,0c-0.1,0-0.4,0.2-0.5,0.3c0,0.1,0.1,0.3,0.2,0.3l0,0L961-486.8z M966.1-482.3
			c-0.4-0.7-0.3-2.1-0.3-2.8c-0.1-0.4-0.5-0.5-0.9-0.5l-2.6,0.9l-0.1,0c-0.4,0-0.4,0.2-0.3,0.5l0,0c0.1,0.4,0.5,2,0.8,2.5
			c0.7,0,1.1,0.2,1.7,0.5c0.4,0.2,0.7,0.3,1.1,0.2C966-481.1,966.1-481.9,966.1-482.3z M963.5-479.4c-0.3,0.1-0.4,0.2-0.4,0.5
			c0.1,0.7,0.3,1.3,0.4,2c0.2,1.1,0.3,2,0.3,3.1c0.1,0.4,0.6,0.5,0.6,0.1l0-0.1l0-0.1c0.2-0.8,0.6-1.4,1-2.1
			c0.2-0.3,0.6-0.8,0.6-1.2l-0.3-1.8l0,0c0-0.5,0-0.5-0.5-0.5H963.5z M969.4-492.1c-0.5,0.4-1,0.9-1.3,1.3c-0.3,0.4-1.1,1.4-0.9,1.9
			c0.1,0.1,0.2,0.2,0.3,0.3l13.5-0.5l0,0c0.4,0,0.9,0.1,1,0.6c0.1,0.6-0.8,1.1-1.2,1.3c-0.2,0.1-0.6,0.4-0.7,0.5l0,0.1l-0.1,0.1
			c-0.2,0.2-0.3,0.4-0.3,0.6h15.2c0.9-2,3.2-3.2,4.2-5.1c0.2-0.5,0.2-1-0.4-1.2H969.4z M958-465.3c4.7,0,8.5,3.8,8.5,8.5
			c0,4.7-3.8,8.5-8.5,8.5s-8.5-3.8-8.5-8.5C949.5-461.5,953.3-465.3,958-465.3z M978.3-483.9c-0.5,0.4-1.1,2.2-1.4,2.8
			c-0.1,0.6,0,1.5,0.6,1.7l14.2,0c0.9-0.2,2.4-1.9,2.6-2.7l0-0.1l0,0c0.5-1,0.5-1.7-0.8-1.7l0,0H978.3z M976.4-473.5h13.1
			c0.4,0,1.2-0.8,1.5-1.1c0.4-0.4,0.9-1,1.1-1.5c0.1-0.3,0.4-1.1,0.1-1.4c-0.1-0.1-0.4-0.2-0.5-0.2h-14.5l0,0
			c-1.2-0.1-1.6,0.3-1.5,1.5l0,0.1l0,0.1c-0.2,0.5-0.5,1.6-0.1,2.1C975.7-473.7,976.1-473.6,976.4-473.5z M974.5-469.9
			c-0.1,0.2-0.2,0.9-0.2,1.1c0,0.2,0,0.9,0.2,1h13.6c0.3-0.3,0.5-0.6,0.8-0.9c0.4-0.4,2.3-2.1,2.2-2.7c0-0.3-0.5-0.5-0.8-0.6h-15.2
			c-0.1,0-0.3,0-0.3,0.1c-0.3,0.3-0.3,1.3-0.3,1.7l0,0.2L974.5-469.9z M974.3-466.3c-0.6,0.1-0.8,0.3-0.7,1l0,0.3l-0.2,0.2
			c-0.2,0.2-0.3,0.8-0.3,1.1c0,0.6-0.1,1.1-0.1,1.7l12.8,0c1-0.3,1.8-1.1,2.3-2c0.3-0.5,0.6-1.5,0.2-2c-0.1-0.2-0.3-0.2-0.5-0.3
			L974.3-466.3z M972.7-460.2c-0.1,0.3-0.3,0.5-0.5,0.7c-0.2,0.4-0.5,0.9-0.7,1.3c-0.1,0.4-0.2,0.8-0.2,1.2c0,0.3,0.1,0.8,0.4,1
			h11.1l2-2.2c0.3-0.4,0.5-0.9,0.6-1.4c0-0.1,0-0.5-0.1-0.6c0,0-0.1,0-0.2,0H972.7z M971.2-454.4c-0.4,0.1-1,1.2-1.2,1.5
			c-0.3,0.5-0.7,1.3-1.1,1.8c0,0.5,0.1,0.9,0.7,0.9h8.8c1.5-0.3,2.6-1.6,3.3-2.9c0.1-0.2,0.2-0.6,0.1-0.8c-0.3-0.5-1.5-0.5-2-0.5
			H971.2z M966.1-444.3h8.2c1.3-0.6,2.2-2,2.9-3.2c0.1-0.3,0.1-0.8-0.1-1c-0.1-0.1-0.2-0.1-0.3-0.1h-8.3l0,0c-0.1,0-0.1,0-0.2,0
			c-0.6,0.1-1.2,1.3-1.5,1.7c-0.3,0.5-0.6,1-1,1.5c-0.1,0.1-0.6,0.7-0.5,0.9C965.4-444.4,965.9-444.3,966.1-444.3z"/>
		<path class="st5" d="M933.8-424.6v-8h3.1c0-0.3,0-0.5,0-0.6c0-0.1,0-0.3,0-0.5c0-0.2,0-0.3-0.1-0.4c0-0.1-0.1-0.2-0.1-0.3
			c-0.1-0.1-0.1-0.2-0.2-0.2c-0.1,0-0.2,0-0.3,0h-7.6v2.1h3.1v8H933.8z M946.6-434.7h-2.5l-1.7,5c-0.9-1.6-1.7-3.3-2.3-5h-2.6v0.1
			c0.9,2.4,2.2,4.9,3.9,7.4c-0.2,0.6-0.7,0.9-1.5,0.9c-0.5,0-0.9-0.1-1.1-0.2v0.6c0,0.5,0.2,0.8,0.5,1c0.3,0.2,0.7,0.4,1.3,0.4
			c1.6,0,2.7-1.1,3.2-3.4L946.6-434.7z M955.5-425.7v-5.8c0-1.2-0.2-2-0.6-2.5c-0.4-0.5-1.2-0.7-2.3-0.7h-4.4
			c-0.3,0-0.5,0.1-0.6,0.4c-0.1,0.3-0.1,0.8-0.1,1.7h0.9l-0.6,4.7c-0.1,1-0.6,1.5-1.3,1.5c-0.3,0-0.5,0-0.7-0.1v1.1
			c0,0.4,0.2,0.6,0.5,0.8c0.3,0.2,0.7,0.3,1.1,0.3c0.7,0,1.2-0.2,1.7-0.7c0.5-0.4,0.7-1.1,0.8-2l0.6-5.6h1.2c0.5,0,0.9,0.1,1.1,0.3
			c0.2,0.2,0.3,0.6,0.3,1v6.8c1,0,1.7-0.1,1.9-0.2C955.4-424.8,955.5-425.2,955.5-425.7z M965.9-425.7v-6.2c0-1-0.2-1.8-0.6-2.2
			c-0.4-0.4-1.1-0.6-2.1-0.6h-3.6c-1,0-1.6,0.1-1.9,0.2s-0.4,0.5-0.4,1v8.9h2.2v-8h3.1c0.4,0,0.6,0.1,0.8,0.3
			c0.2,0.2,0.2,0.4,0.2,0.8v7c1,0,1.6-0.1,1.9-0.2C965.8-424.8,965.9-425.2,965.9-425.7z M976.9-424.6v-0.2l-3.8-10.1
			c-1,0-1.9,0.2-2.5,0.6c0.1,0.3,0,0.7-0.2,1.3c-1.2,2.4-2.3,5.2-3.2,8.4h2.5l0.5-1.8h3.8l0.6,1.8H976.9z M973.3-428.3h-2.6
			c0.4-1.3,0.9-2.5,1.4-3.7L973.3-428.3z M985.5-431.3c0-2.3-1.4-3.5-4.1-3.5h-1c-1,0-1.6,0.1-1.9,0.2s-0.4,0.5-0.4,1v8.9h2.2v-2.9
			h0.8c1.3,0,2.3-0.3,3.1-1C985.1-429.2,985.5-430.1,985.5-431.3z M983.2-431.3c0,0.6-0.2,1.1-0.6,1.4c-0.4,0.3-0.9,0.5-1.6,0.5
			h-0.6v-3.4h0.7C982.5-432.8,983.2-432.3,983.2-431.3z"/>
	</g>
</g>
<g id="cdr_x5F_layer3" class="st0">
</g>
<g id="cdr_x5F_layer4" class="st0">
</g>
<g id="MasterLayer_1" class="st0">
</g>
</svg>
